<svg width="125" height="69" viewBox="0 0 125 69" fill="none" xmlns="http://www.w3.org/2000/svg">
<path d="M0.333333 3C0.333333 4.47276 1.52724 5.66667 3 5.66667C4.47276 5.66667 5.66667 4.47276 5.66667 3C5.66667 1.52724 4.47276 0.333333 3 0.333333C1.52724 0.333333 0.333333 1.52724 0.333333 3ZM3 3.5H64V2.5H3V3.5Z" fill="#4F545C"/>
<path d="M61.3333 34C61.3333 35.4728 62.5272 36.6667 64 36.6667C65.4728 36.6667 66.6667 35.4728 66.6667 34C66.6667 32.5272 65.4728 31.3333 64 31.3333C62.5272 31.3333 61.3333 32.5272 61.3333 34ZM125 34L120 31.1132V36.8868L125 34ZM64 34.5H120.5V33.5H64V34.5Z" fill="#4F545C"/>
<path d="M0.333333 66C0.333333 67.4728 1.52724 68.6667 3 68.6667C4.47276 68.6667 5.66667 67.4728 5.66667 66C5.66667 64.5272 4.47276 63.3333 3 63.3333C1.52724 63.3333 0.333333 64.5272 0.333333 66ZM3 66.5H64V65.5H3V66.5Z" fill="#4F545C"/>
<line x1="63.5" y1="66" x2="63.5" y2="3" stroke="#4F545C"/>
</svg>
