<svg width="12" height="13" viewBox="0 0 12 13" fill="none" xmlns="http://www.w3.org/2000/svg">
<path fill-rule="evenodd" clip-rule="evenodd" d="M12 6.51413C12 7.10591 11.04 7.54788 10.86 8.07973C10.68 8.61159 11.19 9.57792 10.86 10.0199C10.53 10.4618 9.48 10.2821 9.015 10.6192C8.55 10.9562 8.4225 11.9975 7.86 12.1848C7.2975 12.372 6.6075 11.5855 6.0075 11.5855C5.4075 11.5855 4.695 12.3346 4.155 12.1848C3.615 12.0349 3.465 10.9562 3 10.6192C2.535 10.2821 1.5 10.4843 1.155 10.0199C0.81 9.55544 1.3275 8.64155 1.155 8.07973C0.9825 7.51791 0 7.10591 0 6.51413C0 5.92235 0.96 5.48038 1.14 4.94853C1.32 4.41667 0.81 3.45034 1.14 3.00838C1.47 2.56642 2.5275 2.7462 3 2.40911C3.4725 2.07201 3.585 1.03078 4.1475 0.821031C4.71 0.611285 5.4 1.44278 6 1.44278C6.6 1.44278 7.3125 0.693685 7.8525 0.843504C8.3925 0.993322 8.535 2.07201 9 2.40911C9.465 2.7462 10.5 2.54394 10.845 3.00838C11.19 3.47282 10.6725 4.38671 10.845 4.94853C11.0175 5.51035 12 5.92235 12 6.51413Z" fill="#3BA55C"/>
<path d="M5.66357 9.25735L3.13232 7.34313L3.87681 6.32221L5.36578 7.47074L8.07571 3.875L9.08821 4.62568L5.66357 9.25735Z" fill="white"/>
</svg>
